General
Format                           : MPEG-4
Format_Commercial_IfAny          : XDCAM EX 25
Format profile                   : Base Media
Codec ID                         : isom
File size                        : 1.95 GiB
Duration                         : 2h 20mn
Overall bit rate mode            : Variable
Overall bit rate                 : 1 994 Kbps
Encoded date                     : UTC 2011-09-23 06:49:15
Tagged date                      : UTC 2011-09-23 06:49:15

Video
ID                               : 1
Format                           : AVC
Format/Info                      : Advanced Video Codec
Format_Commercial_IfAny          : XDCAM EX 25
Format profile                   : High@L4.0
Format settings, CABAC           : Yes
Format settings, ReFrames        : 3 frames
Codec ID                         : avc1
Codec ID/Info                    : Advanced Video Coding
Duration                         : 2h 20mn
Bit rate mode                    : Variable
Bit rate                         : 1 863 Kbps
Maximum bit rate                 : 25.0 Mbps
Width                            : 1 916 pixels
Height                           : 818 pixels
Display aspect ratio             : 2.35:1
Frame rate mode                  : Constant
Frame rate                       : 23.976 fps
Color space                      : YUV
Chroma subsampling               : 4:2:0
Bit depth                        : 8 bits
Scan type                        : Progressive
Bits/(Pixel*Frame)               : 0.050
Stream size                      : 1.82 GiB (93%)
Title                            : 00301
Writing library                  : x264 core 114 r1924 08d04a4
Encoding settings                : cabac=1 / ref=3 / deblock=1:0:0 / analyse=0x3:0x133 / me=umh / subme=7 / psy=1 / psy_rd=1.00:0.00 / mixed_ref=1 / me_range=16 / chroma_me=1 / trellis=1 / 8x8dct=1 / cqm=0 / deadzone=21,11 / fast_pskip=1 / chroma_qp_offset=-2 / threads=6 / sliced_threads=0 / nr=0 / decimate=1 / interlaced=0 / constrained_intra=0 / bframes=3 / b_pyramid=0 / b_adapt=1 / b_bias=0 / direct=1 / weightb=1 / open_gop=0 / weightp=2 / keyint=240 / keyint_min=24 / scenecut=40 / intra_refresh=0 / rc_lookahead=40 / rc=2pass / mbtree=1 / bitrate=1863 / ratetol=1.0 / qcomp=0.60 / qpmin=0 / qpmax=69 / qpstep=4 / cplxblur=20.0 / qblur=0.5 / vbv_maxrate=25000 / vbv_bufsize=25000 / nal_hrd=vbr / ip_ratio=1.40 / aq=1:1.00
Encoded date                     : UTC 2011-09-23 06:49:15
Tagged date                      : UTC 2011-09-23 06:51:53

Audio
ID                               : 2
Format                           : AAC
Format/Info                      : Advanced Audio Codec
Format profile                   : LC
Codec ID                         : 40
Duration                         : 2h 20mn
Bit rate mode                    : Variable
Bit rate                         : 128 Kbps
Maximum bit rate                 : 136 Kbps
Channel(s)                       : 2 channels
Channel positions                : Front: L R
Sampling rate                    : 48.0 KHz
Compression mode                 : Lossy
Stream size                      : 129 MiB (6%)
Language                         : English
Encoded date                     : UTC 2011-09-23 06:51:24
Tagged date                      : UTC 2011-09-23 06:51:53

Menu
